<svg width="38" height="41" fill="white" xmlns="http://www.w3.org/2000/svg"><path d="M10.213 10.102C5.719 8.917 3.359 7.193 0 1.796c3.571 18.348 8.904 25.812 20.72 31.873-5.969-7.809-9.453-14.122-10.507-23.567zm16.919 30.112C18.827 28.168 14.024 14.44 14.024.666c3.04 4.796 5.06 6.292 9.101 8.013 1.197 7.557 4.995 14.489 9.846 20.324-1.784 4.434-2.793 6.173-5.84 11.21zm7.068-14.63C36.62 17.136 37.519 10.227 37.885 0c-2.937 5.723-5.332 8.117-9.481 9.577.492 4.66 2.898 12.34 5.798 16.007z" fill="white"/></svg>